<?xml version="1.0" encoding="utf-8"?>
<svg version="1.1"
     preserveAspectRatio="xMidYMid meet"
     xmlns="http://www.w3.org/2000/svg"
     xmlns:xlink="http://www.w3.org/1999/xlink"
	 viewBox="-5 -56 710 412">

  <symbol id="symBusy" x="-25" y="-25"
          viewBox="-50 -50 100 100"
          width="50" height="50"
          fill="#F70" stroke="none">
    <path d="M0,30 A30,30,0 1,1 30,0" stroke="#F707" fill="none" stroke-width="20" stroke-linecap="round"/>
    <path d="M0,20 Q15,20 15,30 Q15,40 0,40 A40,40,0 1,1 40,0 A25,25,0 1,0 -20,0 A20,20,0 0,0 0,20"/>
  </symbol>

  <symbol id="symOff" x="-25" y="-25"
          viewBox="-50 -50 100 100"
          width="50" height="50" fill="none">
    <g stroke="#f77" stroke-width="10" stroke-linecap="round">
      <path d="M21,-21 A30,30,0 1,1 -21,-21 M0,-40V0" />
    </g>
  </symbol>

    <symbol id="symMono" x="-25" y="-25"
            viewBox="-50 -50 100 100"
            width="50" height="50" fill="none">
      <g stroke="#7d7" stroke-width="10" stroke-linecap="round" stroke-linejoin="round">
        <path d="M-40-15 A15,15,0 1,1 -10-15 C-10,10 -40,10 -40,30 H-10 M10,-30 h10 A20,30,0 1,1 20,30 h-10 v-60" />
      </g>
    </symbol>


<symbol id="symStereo" x="-25" y="-25"
        viewBox="-45 -45 100 100"
        width="50" height="50" fill="none">
  <g stroke="#5f5" stroke-width="10" stroke-linecap="round" stroke-linejoin="round">
    <path opacity="0.5" transform="translate(5,5)"
          d="M-40-30 h10 A20,15,0 1,1 -30,0 A20,15,0 1,1 -30,30 h-10 M10,-30 h10 A20,30,0 1,1 20,30 h-10 v-60" />
    <path d="M-40-30 h10 A20,15,0 1,1 -30,0 A20,15,0 1,1 -30,30 h-10 M10,-30 h10 A20,30,0 1,1 20,30 h-10 v-60" />
  </g>
</symbol>

    <symbol id="symError" x="-25" y="-25"
            viewBox="-50 -50 100 100"
            width="50" height="50">
      <g stroke="#f70" fill="#f70" stroke-width="10" stroke-linecap="round" stroke-linejoin="round">
        <path d="M-20,20 L0,-15 20,20 Z" />
        <path stroke="#fff" stroke-width="6" d="M0,-5 v10" />
        <circle cx="0" cy="16" r="3.5" stroke="none" fill="#fff" />
      </g>
    </symbol>
<g fill="#004" stroke="#dde" stroke-width="2" stroke-linejoin="round">

<path id="projector1" d="M0,20L100,10.466326355567771,100,252.33163177783885,0,300Z" />
<g id="projector1Mono">
<path d="M0,20L100,10.466326355567771,100,252.33163177783885,0,300Z" fill="#003"/>
<use xlink:href="#symMono" x="50" y="128.08290794445972"/>
</g>
<g id="projector1Stereo">
<path d="M0,20L100,10.466326355567771,100,252.33163177783885,0,300Z" fill="#115"/>
<use xlink:href="#symStereo" x="50" y="128.08290794445972"/>
</g>
<g id="projector1Error">
<use xlink:href="#symError" x="50" y="178.08290794445972"/>
</g>
<g id="projector1Busy">
<path d="M0,20L100,10.466326355567771,100,252.33163177783885,0,300Z" fill="#222"/>
<g transform="translate(50,128.08290794445972)">
<use xlink:href="#symBusy" x="0" y="0" class="spin"/>
</g>
</g>
<g id="projector1Off">
<path d="M0,20L100,10.466326355567771,100,252.33163177783885,0,300Z" fill="#000"/>
<use xlink:href="#symOff" x="50" y="128.08290794445972"/>
</g>
<path id="floor" d="M0,300L100,252.33163177783885L200,219.15942947363828L300,202.14678582598464L400,202.14678582598464L500,219.15942947363828L600,252.33163177783885L700,300Z"/>
<g id="floorMono" d="M0,300L100,252.33163177783885L200,219.15942947363828L300,202.14678582598464L400,202.14678582598464L500,219.15942947363828L600,252.33163177783885L700,300Z">
<path d="M0,300L100,252.33163177783885L200,219.15942947363828L300,202.14678582598464L400,202.14678582598464L500,219.15942947363828L600,252.33163177783885L700,300Z" fill="#003"/>
<use xlink:href="#symMono" x="350" y="250"/>
</g>
<g id="floorStereo" d="M0,300L100,252.33163177783885L200,219.15942947363828L300,202.14678582598464L400,202.14678582598464L500,219.15942947363828L600,252.33163177783885L700,300Z">
<path d="M0,300L100,252.33163177783885L200,219.15942947363828L300,202.14678582598464L400,202.14678582598464L500,219.15942947363828L600,252.33163177783885L700,300Z" fill="#115"/>
<use xlink:href="#symStereo" x="350" y="250"/>
</g>
<g id="floorError" d="M0,300L100,252.33163177783885L200,219.15942947363828L300,202.14678582598464L400,202.14678582598464L500,219.15942947363828L600,252.33163177783885L700,300Z">
<use xlink:href="#symError" x="400" y="250"/>
</g>
<g id="floorBusy" d="M0,300L100,252.33163177783885L200,219.15942947363828L300,202.14678582598464L400,202.14678582598464L500,219.15942947363828L600,252.33163177783885L700,300Z">
<path d="M0,300L100,252.33163177783885L200,219.15942947363828L300,202.14678582598464L400,202.14678582598464L500,219.15942947363828L600,252.33163177783885L700,300Z" fill="#222"/>
<g transform="translate(350,250)">
<use xlink:href="#symBusy" x="0" y="0" class="spin"/>
</g>
</g>
<g id="floorOff" d="M0,300L100,252.33163177783885L200,219.15942947363828L300,202.14678582598464L400,202.14678582598464L500,219.15942947363828L600,252.33163177783885L700,300Z">
<path d="M0,300L100,252.33163177783885L200,219.15942947363828L300,202.14678582598464L400,202.14678582598464L500,219.15942947363828L600,252.33163177783885L700,300Z" fill="#000"/>
<use xlink:href="#symOff" x="350" y="250"/>
</g>
<path id="projector2" d="M100,10.466326355567771L200,3.8318858947276517,200,219.15942947363828,100,252.33163177783885Z" />
<g id="projector2Mono">
<path d="M100,10.466326355567771L200,3.8318858947276517,200,219.15942947363828,100,252.33163177783885Z" fill="#003"/>
<use xlink:href="#symMono" x="150" y="107.87276531286929"/>
</g>
<g id="projector2Stereo">
<path d="M100,10.466326355567771L200,3.8318858947276517,200,219.15942947363828,100,252.33163177783885Z" fill="#115"/>
<use xlink:href="#symStereo" x="150" y="107.87276531286929"/>
</g>
<g id="projector2Error">
<use xlink:href="#symError" x="150" y="157.8727653128693"/>
</g>
<g id="projector2Busy">
<path d="M100,10.466326355567771L200,3.8318858947276517,200,219.15942947363828,100,252.33163177783885Z" fill="#222"/>
<g transform="translate(150,107.87276531286929)">
<use xlink:href="#symBusy" x="0" y="0" class="spin"/>
</g>
</g>
<g id="projector2Off">
<path d="M100,10.466326355567771L200,3.8318858947276517,200,219.15942947363828,100,252.33163177783885Z" fill="#000"/>
<use xlink:href="#symOff" x="150" y="107.87276531286929"/>
</g>
<path id="floor" d="M0,300L100,252.33163177783885L200,219.15942947363828L300,202.14678582598464L400,202.14678582598464L500,219.15942947363828L600,252.33163177783885L700,300Z"/>
<g id="floorMono" d="M0,300L100,252.33163177783885L200,219.15942947363828L300,202.14678582598464L400,202.14678582598464L500,219.15942947363828L600,252.33163177783885L700,300Z">
<path d="M0,300L100,252.33163177783885L200,219.15942947363828L300,202.14678582598464L400,202.14678582598464L500,219.15942947363828L600,252.33163177783885L700,300Z" fill="#003"/>
<use xlink:href="#symMono" x="350" y="250"/>
</g>
<g id="floorStereo" d="M0,300L100,252.33163177783885L200,219.15942947363828L300,202.14678582598464L400,202.14678582598464L500,219.15942947363828L600,252.33163177783885L700,300Z">
<path d="M0,300L100,252.33163177783885L200,219.15942947363828L300,202.14678582598464L400,202.14678582598464L500,219.15942947363828L600,252.33163177783885L700,300Z" fill="#115"/>
<use xlink:href="#symStereo" x="350" y="250"/>
</g>
<g id="floorError" d="M0,300L100,252.33163177783885L200,219.15942947363828L300,202.14678582598464L400,202.14678582598464L500,219.15942947363828L600,252.33163177783885L700,300Z">
<use xlink:href="#symError" x="400" y="250"/>
</g>
<g id="floorBusy" d="M0,300L100,252.33163177783885L200,219.15942947363828L300,202.14678582598464L400,202.14678582598464L500,219.15942947363828L600,252.33163177783885L700,300Z">
<path d="M0,300L100,252.33163177783885L200,219.15942947363828L300,202.14678582598464L400,202.14678582598464L500,219.15942947363828L600,252.33163177783885L700,300Z" fill="#222"/>
<g transform="translate(350,250)">
<use xlink:href="#symBusy" x="0" y="0" class="spin"/>
</g>
</g>
<g id="floorOff" d="M0,300L100,252.33163177783885L200,219.15942947363828L300,202.14678582598464L400,202.14678582598464L500,219.15942947363828L600,252.33163177783885L700,300Z">
<path d="M0,300L100,252.33163177783885L200,219.15942947363828L300,202.14678582598464L400,202.14678582598464L500,219.15942947363828L600,252.33163177783885L700,300Z" fill="#000"/>
<use xlink:href="#symOff" x="350" y="250"/>
</g>
<path id="projector3" d="M200,3.8318858947276517L300,0.42935716519692946,300,202.14678582598464,200,219.15942947363828Z" />
<g id="projector3Mono">
<path d="M200,3.8318858947276517L300,0.42935716519692946,300,202.14678582598464,200,219.15942947363828Z" fill="#003"/>
<use xlink:href="#symMono" x="250" y="95.32655382490573"/>
</g>
<g id="projector3Stereo">
<path d="M200,3.8318858947276517L300,0.42935716519692946,300,202.14678582598464,200,219.15942947363828Z" fill="#115"/>
<use xlink:href="#symStereo" x="250" y="95.32655382490573"/>
</g>
<g id="projector3Error">
<use xlink:href="#symError" x="250" y="145.32655382490572"/>
</g>
<g id="projector3Busy">
<path d="M200,3.8318858947276517L300,0.42935716519692946,300,202.14678582598464,200,219.15942947363828Z" fill="#222"/>
<g transform="translate(250,95.32655382490573)">
<use xlink:href="#symBusy" x="0" y="0" class="spin"/>
</g>
</g>
<g id="projector3Off">
<path d="M200,3.8318858947276517L300,0.42935716519692946,300,202.14678582598464,200,219.15942947363828Z" fill="#000"/>
<use xlink:href="#symOff" x="250" y="95.32655382490573"/>
</g>
<path id="floor" d="M0,300L100,252.33163177783885L200,219.15942947363828L300,202.14678582598464L400,202.14678582598464L500,219.15942947363828L600,252.33163177783885L700,300Z"/>
<g id="floorMono" d="M0,300L100,252.33163177783885L200,219.15942947363828L300,202.14678582598464L400,202.14678582598464L500,219.15942947363828L600,252.33163177783885L700,300Z">
<path d="M0,300L100,252.33163177783885L200,219.15942947363828L300,202.14678582598464L400,202.14678582598464L500,219.15942947363828L600,252.33163177783885L700,300Z" fill="#003"/>
<use xlink:href="#symMono" x="350" y="250"/>
</g>
<g id="floorStereo" d="M0,300L100,252.33163177783885L200,219.15942947363828L300,202.14678582598464L400,202.14678582598464L500,219.15942947363828L600,252.33163177783885L700,300Z">
<path d="M0,300L100,252.33163177783885L200,219.15942947363828L300,202.14678582598464L400,202.14678582598464L500,219.15942947363828L600,252.33163177783885L700,300Z" fill="#115"/>
<use xlink:href="#symStereo" x="350" y="250"/>
</g>
<g id="floorError" d="M0,300L100,252.33163177783885L200,219.15942947363828L300,202.14678582598464L400,202.14678582598464L500,219.15942947363828L600,252.33163177783885L700,300Z">
<use xlink:href="#symError" x="400" y="250"/>
</g>
<g id="floorBusy" d="M0,300L100,252.33163177783885L200,219.15942947363828L300,202.14678582598464L400,202.14678582598464L500,219.15942947363828L600,252.33163177783885L700,300Z">
<path d="M0,300L100,252.33163177783885L200,219.15942947363828L300,202.14678582598464L400,202.14678582598464L500,219.15942947363828L600,252.33163177783885L700,300Z" fill="#222"/>
<g transform="translate(350,250)">
<use xlink:href="#symBusy" x="0" y="0" class="spin"/>
</g>
</g>
<g id="floorOff" d="M0,300L100,252.33163177783885L200,219.15942947363828L300,202.14678582598464L400,202.14678582598464L500,219.15942947363828L600,252.33163177783885L700,300Z">
<path d="M0,300L100,252.33163177783885L200,219.15942947363828L300,202.14678582598464L400,202.14678582598464L500,219.15942947363828L600,252.33163177783885L700,300Z" fill="#000"/>
<use xlink:href="#symOff" x="350" y="250"/>
</g>
<path id="projector4" d="M300,0.42935716519692946L400,0.42935716519692946,400,202.14678582598464,300,202.14678582598464Z" />
<g id="projector4Mono">
<path d="M300,0.42935716519692946L400,0.42935716519692946,400,202.14678582598464,300,202.14678582598464Z" fill="#003"/>
<use xlink:href="#symMono" x="350" y="91.07339291299232"/>
</g>
<g id="projector4Stereo">
<path d="M300,0.42935716519692946L400,0.42935716519692946,400,202.14678582598464,300,202.14678582598464Z" fill="#115"/>
<use xlink:href="#symStereo" x="350" y="91.07339291299232"/>
</g>
<g id="projector4Error">
<use xlink:href="#symError" x="350" y="141.07339291299232"/>
</g>
<g id="projector4Busy">
<path d="M300,0.42935716519692946L400,0.42935716519692946,400,202.14678582598464,300,202.14678582598464Z" fill="#222"/>
<g transform="translate(350,91.07339291299232)">
<use xlink:href="#symBusy" x="0" y="0" class="spin"/>
</g>
</g>
<g id="projector4Off">
<path d="M300,0.42935716519692946L400,0.42935716519692946,400,202.14678582598464,300,202.14678582598464Z" fill="#000"/>
<use xlink:href="#symOff" x="350" y="91.07339291299232"/>
</g>
<path id="floor" d="M0,300L100,252.33163177783885L200,219.15942947363828L300,202.14678582598464L400,202.14678582598464L500,219.15942947363828L600,252.33163177783885L700,300Z"/>
<g id="floorMono" d="M0,300L100,252.33163177783885L200,219.15942947363828L300,202.14678582598464L400,202.14678582598464L500,219.15942947363828L600,252.33163177783885L700,300Z">
<path d="M0,300L100,252.33163177783885L200,219.15942947363828L300,202.14678582598464L400,202.14678582598464L500,219.15942947363828L600,252.33163177783885L700,300Z" fill="#003"/>
<use xlink:href="#symMono" x="350" y="250"/>
</g>
<g id="floorStereo" d="M0,300L100,252.33163177783885L200,219.15942947363828L300,202.14678582598464L400,202.14678582598464L500,219.15942947363828L600,252.33163177783885L700,300Z">
<path d="M0,300L100,252.33163177783885L200,219.15942947363828L300,202.14678582598464L400,202.14678582598464L500,219.15942947363828L600,252.33163177783885L700,300Z" fill="#115"/>
<use xlink:href="#symStereo" x="350" y="250"/>
</g>
<g id="floorError" d="M0,300L100,252.33163177783885L200,219.15942947363828L300,202.14678582598464L400,202.14678582598464L500,219.15942947363828L600,252.33163177783885L700,300Z">
<use xlink:href="#symError" x="400" y="250"/>
</g>
<g id="floorBusy" d="M0,300L100,252.33163177783885L200,219.15942947363828L300,202.14678582598464L400,202.14678582598464L500,219.15942947363828L600,252.33163177783885L700,300Z">
<path d="M0,300L100,252.33163177783885L200,219.15942947363828L300,202.14678582598464L400,202.14678582598464L500,219.15942947363828L600,252.33163177783885L700,300Z" fill="#222"/>
<g transform="translate(350,250)">
<use xlink:href="#symBusy" x="0" y="0" class="spin"/>
</g>
</g>
<g id="floorOff" d="M0,300L100,252.33163177783885L200,219.15942947363828L300,202.14678582598464L400,202.14678582598464L500,219.15942947363828L600,252.33163177783885L700,300Z">
<path d="M0,300L100,252.33163177783885L200,219.15942947363828L300,202.14678582598464L400,202.14678582598464L500,219.15942947363828L600,252.33163177783885L700,300Z" fill="#000"/>
<use xlink:href="#symOff" x="350" y="250"/>
</g>
<path id="projector5" d="M400,0.42935716519692946L500,3.8318858947276517,500,219.15942947363828,400,202.14678582598464Z" />
<g id="projector5Mono">
<path d="M400,0.42935716519692946L500,3.8318858947276517,500,219.15942947363828,400,202.14678582598464Z" fill="#003"/>
<use xlink:href="#symMono" x="450" y="95.32655382490573"/>
</g>
<g id="projector5Stereo">
<path d="M400,0.42935716519692946L500,3.8318858947276517,500,219.15942947363828,400,202.14678582598464Z" fill="#115"/>
<use xlink:href="#symStereo" x="450" y="95.32655382490573"/>
</g>
<g id="projector5Error">
<use xlink:href="#symError" x="450" y="145.32655382490572"/>
</g>
<g id="projector5Busy">
<path d="M400,0.42935716519692946L500,3.8318858947276517,500,219.15942947363828,400,202.14678582598464Z" fill="#222"/>
<g transform="translate(450,95.32655382490573)">
<use xlink:href="#symBusy" x="0" y="0" class="spin"/>
</g>
</g>
<g id="projector5Off">
<path d="M400,0.42935716519692946L500,3.8318858947276517,500,219.15942947363828,400,202.14678582598464Z" fill="#000"/>
<use xlink:href="#symOff" x="450" y="95.32655382490573"/>
</g>
<path id="floor" d="M0,300L100,252.33163177783885L200,219.15942947363828L300,202.14678582598464L400,202.14678582598464L500,219.15942947363828L600,252.33163177783885L700,300Z"/>
<g id="floorMono" d="M0,300L100,252.33163177783885L200,219.15942947363828L300,202.14678582598464L400,202.14678582598464L500,219.15942947363828L600,252.33163177783885L700,300Z">
<path d="M0,300L100,252.33163177783885L200,219.15942947363828L300,202.14678582598464L400,202.14678582598464L500,219.15942947363828L600,252.33163177783885L700,300Z" fill="#003"/>
<use xlink:href="#symMono" x="350" y="250"/>
</g>
<g id="floorStereo" d="M0,300L100,252.33163177783885L200,219.15942947363828L300,202.14678582598464L400,202.14678582598464L500,219.15942947363828L600,252.33163177783885L700,300Z">
<path d="M0,300L100,252.33163177783885L200,219.15942947363828L300,202.14678582598464L400,202.14678582598464L500,219.15942947363828L600,252.33163177783885L700,300Z" fill="#115"/>
<use xlink:href="#symStereo" x="350" y="250"/>
</g>
<g id="floorError" d="M0,300L100,252.33163177783885L200,219.15942947363828L300,202.14678582598464L400,202.14678582598464L500,219.15942947363828L600,252.33163177783885L700,300Z">
<use xlink:href="#symError" x="400" y="250"/>
</g>
<g id="floorBusy" d="M0,300L100,252.33163177783885L200,219.15942947363828L300,202.14678582598464L400,202.14678582598464L500,219.15942947363828L600,252.33163177783885L700,300Z">
<path d="M0,300L100,252.33163177783885L200,219.15942947363828L300,202.14678582598464L400,202.14678582598464L500,219.15942947363828L600,252.33163177783885L700,300Z" fill="#222"/>
<g transform="translate(350,250)">
<use xlink:href="#symBusy" x="0" y="0" class="spin"/>
</g>
</g>
<g id="floorOff" d="M0,300L100,252.33163177783885L200,219.15942947363828L300,202.14678582598464L400,202.14678582598464L500,219.15942947363828L600,252.33163177783885L700,300Z">
<path d="M0,300L100,252.33163177783885L200,219.15942947363828L300,202.14678582598464L400,202.14678582598464L500,219.15942947363828L600,252.33163177783885L700,300Z" fill="#000"/>
<use xlink:href="#symOff" x="350" y="250"/>
</g>
<path id="projector6" d="M500,3.8318858947276517L600,10.466326355567771,600,252.33163177783885,500,219.15942947363828Z" />
<g id="projector6Mono">
<path d="M500,3.8318858947276517L600,10.466326355567771,600,252.33163177783885,500,219.15942947363828Z" fill="#003"/>
<use xlink:href="#symMono" x="550" y="107.87276531286929"/>
</g>
<g id="projector6Stereo">
<path d="M500,3.8318858947276517L600,10.466326355567771,600,252.33163177783885,500,219.15942947363828Z" fill="#115"/>
<use xlink:href="#symStereo" x="550" y="107.87276531286929"/>
</g>
<g id="projector6Error">
<use xlink:href="#symError" x="550" y="157.8727653128693"/>
</g>
<g id="projector6Busy">
<path d="M500,3.8318858947276517L600,10.466326355567771,600,252.33163177783885,500,219.15942947363828Z" fill="#222"/>
<g transform="translate(550,107.87276531286929)">
<use xlink:href="#symBusy" x="0" y="0" class="spin"/>
</g>
</g>
<g id="projector6Off">
<path d="M500,3.8318858947276517L600,10.466326355567771,600,252.33163177783885,500,219.15942947363828Z" fill="#000"/>
<use xlink:href="#symOff" x="550" y="107.87276531286929"/>
</g>
<path id="floor" d="M0,300L100,252.33163177783885L200,219.15942947363828L300,202.14678582598464L400,202.14678582598464L500,219.15942947363828L600,252.33163177783885L700,300Z"/>
<g id="floorMono" d="M0,300L100,252.33163177783885L200,219.15942947363828L300,202.14678582598464L400,202.14678582598464L500,219.15942947363828L600,252.33163177783885L700,300Z">
<path d="M0,300L100,252.33163177783885L200,219.15942947363828L300,202.14678582598464L400,202.14678582598464L500,219.15942947363828L600,252.33163177783885L700,300Z" fill="#003"/>
<use xlink:href="#symMono" x="350" y="250"/>
</g>
<g id="floorStereo" d="M0,300L100,252.33163177783885L200,219.15942947363828L300,202.14678582598464L400,202.14678582598464L500,219.15942947363828L600,252.33163177783885L700,300Z">
<path d="M0,300L100,252.33163177783885L200,219.15942947363828L300,202.14678582598464L400,202.14678582598464L500,219.15942947363828L600,252.33163177783885L700,300Z" fill="#115"/>
<use xlink:href="#symStereo" x="350" y="250"/>
</g>
<g id="floorError" d="M0,300L100,252.33163177783885L200,219.15942947363828L300,202.14678582598464L400,202.14678582598464L500,219.15942947363828L600,252.33163177783885L700,300Z">
<use xlink:href="#symError" x="400" y="250"/>
</g>
<g id="floorBusy" d="M0,300L100,252.33163177783885L200,219.15942947363828L300,202.14678582598464L400,202.14678582598464L500,219.15942947363828L600,252.33163177783885L700,300Z">
<path d="M0,300L100,252.33163177783885L200,219.15942947363828L300,202.14678582598464L400,202.14678582598464L500,219.15942947363828L600,252.33163177783885L700,300Z" fill="#222"/>
<g transform="translate(350,250)">
<use xlink:href="#symBusy" x="0" y="0" class="spin"/>
</g>
</g>
<g id="floorOff" d="M0,300L100,252.33163177783885L200,219.15942947363828L300,202.14678582598464L400,202.14678582598464L500,219.15942947363828L600,252.33163177783885L700,300Z">
<path d="M0,300L100,252.33163177783885L200,219.15942947363828L300,202.14678582598464L400,202.14678582598464L500,219.15942947363828L600,252.33163177783885L700,300Z" fill="#000"/>
<use xlink:href="#symOff" x="350" y="250"/>
</g>
<path id="projector7" d="M600,10.466326355567771L700,20,700,300,600,252.33163177783885Z" />
<g id="projector7Mono">
<path d="M600,10.466326355567771L700,20,700,300,600,252.33163177783885Z" fill="#003"/>
<use xlink:href="#symMono" x="650" y="128.08290794445972"/>
</g>
<g id="projector7Stereo">
<path d="M600,10.466326355567771L700,20,700,300,600,252.33163177783885Z" fill="#115"/>
<use xlink:href="#symStereo" x="650" y="128.08290794445972"/>
</g>
<g id="projector7Error">
<use xlink:href="#symError" x="650" y="178.08290794445972"/>
</g>
<g id="projector7Busy">
<path d="M600,10.466326355567771L700,20,700,300,600,252.33163177783885Z" fill="#222"/>
<g transform="translate(650,128.08290794445972)">
<use xlink:href="#symBusy" x="0" y="0" class="spin"/>
</g>
</g>
<g id="projector7Off">
<path d="M600,10.466326355567771L700,20,700,300,600,252.33163177783885Z" fill="#000"/>
<use xlink:href="#symOff" x="650" y="128.08290794445972"/>
</g>
<path id="floor" d="M0,300L100,252.33163177783885L200,219.15942947363828L300,202.14678582598464L400,202.14678582598464L500,219.15942947363828L600,252.33163177783885L700,300Z"/>
<g id="floorMono" d="M0,300L100,252.33163177783885L200,219.15942947363828L300,202.14678582598464L400,202.14678582598464L500,219.15942947363828L600,252.33163177783885L700,300Z">
<path d="M0,300L100,252.33163177783885L200,219.15942947363828L300,202.14678582598464L400,202.14678582598464L500,219.15942947363828L600,252.33163177783885L700,300Z" fill="#003"/>
<use xlink:href="#symMono" x="350" y="250"/>
</g>
<g id="floorStereo" d="M0,300L100,252.33163177783885L200,219.15942947363828L300,202.14678582598464L400,202.14678582598464L500,219.15942947363828L600,252.33163177783885L700,300Z">
<path d="M0,300L100,252.33163177783885L200,219.15942947363828L300,202.14678582598464L400,202.14678582598464L500,219.15942947363828L600,252.33163177783885L700,300Z" fill="#115"/>
<use xlink:href="#symStereo" x="350" y="250"/>
</g>
<g id="floorError" d="M0,300L100,252.33163177783885L200,219.15942947363828L300,202.14678582598464L400,202.14678582598464L500,219.15942947363828L600,252.33163177783885L700,300Z">
<use xlink:href="#symError" x="400" y="250"/>
</g>
<g id="floorBusy" d="M0,300L100,252.33163177783885L200,219.15942947363828L300,202.14678582598464L400,202.14678582598464L500,219.15942947363828L600,252.33163177783885L700,300Z">
<path d="M0,300L100,252.33163177783885L200,219.15942947363828L300,202.14678582598464L400,202.14678582598464L500,219.15942947363828L600,252.33163177783885L700,300Z" fill="#222"/>
<g transform="translate(350,250)">
<use xlink:href="#symBusy" x="0" y="0" class="spin"/>
</g>
</g>
<g id="floorOff" d="M0,300L100,252.33163177783885L200,219.15942947363828L300,202.14678582598464L400,202.14678582598464L500,219.15942947363828L600,252.33163177783885L700,300Z">
<path d="M0,300L100,252.33163177783885L200,219.15942947363828L300,202.14678582598464L400,202.14678582598464L500,219.15942947363828L600,252.33163177783885L700,300Z" fill="#000"/>
<use xlink:href="#symOff" x="350" y="250"/>
</g>
<g id="captionWide" style="font:14px sans-serif">
<g transform="translate(50,-5.7668368222161135)" style="font:14px sans-serif">
<text transform="skewY(-5.445932901625994)" stroke="#000" fill="none" stroke-width="4.666666666666667" text-anchor="middle" x="0" y="0">PROJ. 1</text>
<text transform="skewY(-5.445932901625994)" stroke="none" fill="#fff7" text-anchor="middle" x="0" y="0">PROJ. 1</text>
</g>
<g transform="translate(150,-13.85089387485229)" style="font:14px sans-serif">
<text transform="skewY(-3.795691886138122)" stroke="#000" fill="none" stroke-width="4.666666666666667" text-anchor="middle" x="0" y="0">PROJ. 2</text>
<text transform="skewY(-3.795691886138122)" stroke="none" fill="#fff7" text-anchor="middle" x="0" y="0">PROJ. 2</text>
</g>
<g transform="translate(250,-18.86937847003771)" style="font:14px sans-serif">
<text transform="skewY(-1.9487535536713818)" stroke="#000" fill="none" stroke-width="4.666666666666667" text-anchor="middle" x="0" y="0">PROJ. 3</text>
<text transform="skewY(-1.9487535536713818)" stroke="none" fill="#fff7" text-anchor="middle" x="0" y="0">PROJ. 3</text>
</g>
<g transform="translate(350,-20.57064283480307)" style="font:14px sans-serif">
<text transform="skewY(0)" stroke="#000" fill="none" stroke-width="4.666666666666667" text-anchor="middle" x="0" y="0">PROJ. 4</text>
<text transform="skewY(0)" stroke="none" fill="#fff7" text-anchor="middle" x="0" y="0">PROJ. 4</text>
</g>
<g transform="translate(450,-18.86937847003771)" style="font:14px sans-serif">
<text transform="skewY(1.9487535536713818)" stroke="#000" fill="none" stroke-width="4.666666666666667" text-anchor="middle" x="0" y="0">PROJ. 5</text>
<text transform="skewY(1.9487535536713818)" stroke="none" fill="#fff7" text-anchor="middle" x="0" y="0">PROJ. 5</text>
</g>
<g transform="translate(550,-13.85089387485229)" style="font:14px sans-serif">
<text transform="skewY(3.795691886138122)" stroke="#000" fill="none" stroke-width="4.666666666666667" text-anchor="middle" x="0" y="0">PROJ. 6</text>
<text transform="skewY(3.795691886138122)" stroke="none" fill="#fff7" text-anchor="middle" x="0" y="0">PROJ. 6</text>
</g>
<g transform="translate(650,-5.7668368222161135)" style="font:14px sans-serif">
<text transform="skewY(5.445932901625994)" stroke="#000" fill="none" stroke-width="4.666666666666667" text-anchor="middle" x="0" y="0">PROJ. 7</text>
<text transform="skewY(5.445932901625994)" stroke="none" fill="#fff7" text-anchor="middle" x="0" y="0">PROJ. 7</text>
</g>
<text stroke="none" fill="#fff7" text-anchor="middle" x="350" y="335">FLOOR</text>
</g>
<g id="captionNarrow" style="font:35px sans-serif">
<g transform="translate(50,-5.7668368222161135)" style="font:35px sans-serif">
<text transform="skewY(-5.445932901625994)" stroke="#000" fill="none" stroke-width="11.666666666666666" text-anchor="middle" x="0" y="0">1</text>
<text transform="skewY(-5.445932901625994)" stroke="none" fill="#fff7" text-anchor="middle" x="0" y="0">1</text>
</g>
<g transform="translate(150,-13.85089387485229)" style="font:35px sans-serif">
<text transform="skewY(-3.795691886138122)" stroke="#000" fill="none" stroke-width="11.666666666666666" text-anchor="middle" x="0" y="0">2</text>
<text transform="skewY(-3.795691886138122)" stroke="none" fill="#fff7" text-anchor="middle" x="0" y="0">2</text>
</g>
<g transform="translate(250,-18.86937847003771)" style="font:35px sans-serif">
<text transform="skewY(-1.9487535536713818)" stroke="#000" fill="none" stroke-width="11.666666666666666" text-anchor="middle" x="0" y="0">3</text>
<text transform="skewY(-1.9487535536713818)" stroke="none" fill="#fff7" text-anchor="middle" x="0" y="0">3</text>
</g>
<g transform="translate(350,-20.57064283480307)" style="font:35px sans-serif">
<text transform="skewY(0)" stroke="#000" fill="none" stroke-width="11.666666666666666" text-anchor="middle" x="0" y="0">4</text>
<text transform="skewY(0)" stroke="none" fill="#fff7" text-anchor="middle" x="0" y="0">4</text>
</g>
<g transform="translate(450,-18.86937847003771)" style="font:35px sans-serif">
<text transform="skewY(1.9487535536713818)" stroke="#000" fill="none" stroke-width="11.666666666666666" text-anchor="middle" x="0" y="0">5</text>
<text transform="skewY(1.9487535536713818)" stroke="none" fill="#fff7" text-anchor="middle" x="0" y="0">5</text>
</g>
<g transform="translate(550,-13.85089387485229)" style="font:35px sans-serif">
<text transform="skewY(3.795691886138122)" stroke="#000" fill="none" stroke-width="11.666666666666666" text-anchor="middle" x="0" y="0">6</text>
<text transform="skewY(3.795691886138122)" stroke="none" fill="#fff7" text-anchor="middle" x="0" y="0">6</text>
</g>
<g transform="translate(650,-5.7668368222161135)" style="font:35px sans-serif">
<text transform="skewY(5.445932901625994)" stroke="#000" fill="none" stroke-width="11.666666666666666" text-anchor="middle" x="0" y="0">7</text>
<text transform="skewY(5.445932901625994)" stroke="none" fill="#fff7" text-anchor="middle" x="0" y="0">7</text>
</g>
<text stroke-width="4.666666666666667" stroke="#000" fill="none" text-anchor="middle" x="350" y="342">FLOOR</text>
<text stroke="none" fill="#fff7" text-anchor="middle" x="350" y="342">FLOOR</text>
</g>
</g>
</svg>
